# xmcd CD database file
#
# Track frame offsets:
#	150
#	13405
#	30860
#	51815
#	81617
#	99572
#	116397
#	127872
#	146660
#	170622
#	189010
#	205535
#	220597
#
# Disc length: 3119 seconds
#
# Revision: 1
# Processed by: cddbd v1.5.2PL0 Copyright (c) Steve Scherf et al.
# Submitted via: CDex 1.51
#
DISCID=a60c2d0d
DTITLE=Walter Liniger - Conversations
DYEAR=1992
DGENRE=Blues
TTITLE0=Checkerboard Boogie
TTITLE1=Walked All Night Long
TTITLE2=Meet Me In The Bottom
TTITLE3=Sugar Mama
TTITLE4=Can't Go Home No More
TTITLE5=Nothing But The Blues
TTITLE6=Biscuits
TTITLE7=Canned Heat Blues
TTITLE8=Lonesome In My Bedroom
TTITLE9=Boogie In The Dark
TTITLE10=44 Blues
TTITLE11=Little Red Rooster
TTITLE12=Blood Red River
EXTD=YEAR: 1992
EXTT0=
EXTT1=
EXTT2=
EXTT3=
EXTT4=
EXTT5=
EXTT6=
EXTT7=
EXTT8=
EXTT9=
EXTT10=
EXTT11=
EXTT12=
PLAYORDER=
